<?xml version="1.0" ?><!DOCTYPE svg  PUBLIC '-//W3C//DTD SVG 1.1//EN'  'http://www.w3.org/Graphics/SVG/1.1/DTD/svg11.dtd'><svg enable-background="new 0 0 50 50" id="Layer_1" version="1.1" viewBox="0 0 50 50" xml:space="preserve" xmlns="http://www.w3.org/2000/svg" xmlns:xlink="http://www.w3.org/1999/xlink"><path d="M32.7,13.5c-0.2-0.7-0.9-3.2-1.6-3.4c-1.2,0-2.2,0-3.4,0c-0.4,0-1.7,2.2-1.9,2.6  c-0.8,2-1.1,3.1-1.7,5.2c-0.6,2.2-1.2,4.5-1.7,6.9c-0.2-0.4-0.7-1.4-0.9-1.7c-1.1-2.2-1.5-3.9-2.6-6c-1.1-2.2-1-3-3.4-2.6  c-0.6,0.1-2,0.6-2.6,0.9c-0.3,0.1-0.9,0.6-0.9,1.7c0,5.1,0,9.8,0.9,14.6c0.5,3.4,0.1,3.8,3.4,2.6c0.2-0.1-0.2,0.1,0,0  c1.7-0.9,2.7-0.9,2.6-1.7c-0.2-1.5-0.7-3.7-0.9-5.2c0.1,0-0.1,0,0,0c0.9,0,2.5,2.7,3.4,4.3c0.8,1.3,1.7,1.7,2.6,1.7  c3.4,0,4.3-0.9,4.3-1.7c0-0.9,0-2.8,0-3.4c0-1.7-0.1-6.3,0-6.9c1.5,4.8,2.9,9.2,4.3,13.8c0.2,0.8,1.7,1.1,2.5,0.9  c1.6,0,2.8-0.6,2.6-1.2c-1.7-5.9-2.4-9.6-3.4-14.2C33.8,17.8,33.6,16.9,32.7,13.5z" fill="#E71E27" id="M_1_"/><path d="M25,1C11.7,1,1,11.7,1,25s10.7,24,24,24s24-10.7,24-24S38.3,1,25,1z M25,44C14.5,44,6,35.5,6,25S14.5,6,25,6  s19,8.5,19,19S35.5,44,25,44z" fill="#E71E27"/></svg>